<?xml version="1.0" standalone="no"?>
<svg xmlns="http://www.w3.org/2000/svg" viewBox="0 0 101 34" id="mini1"><defs><path id="border" d="m 0 0 h 100 v 100 h -100 z " fill="#fff" stroke="#000" stroke-width="2"></path><g id="i1_m0"><polygon points="0,0 25,0 0,25" fill="#000000" stroke="#000000" stroke-width="1"></polygon><polygon points="75,0 100,0 100,25" fill="#000000" stroke="#000000" stroke-width="1"></polygon></g><g id="i1_m1"><polygon points="100,75 100,100 75,100" fill="#000000" stroke="#000000" stroke-width="1"></polygon><polygon points="75,0 100,0 100,25" fill="#000000" stroke="#000000" stroke-width="1"></polygon></g><g id="i1_m2"><polygon points="25,100 0,100 0,75" fill="#000000" stroke="#000000" stroke-width="1"></polygon><polygon points="100,75 100,100 75,100" fill="#000000" stroke="#000000" stroke-width="1"></polygon></g><g id="i1_m3"><polygon points="0,0 25,0 0,25" fill="#000000" stroke="#000000" stroke-width="1"></polygon></g><g id="i1_m4"><polygon points="75,0 100,0 100,25" fill="#000000" stroke="#000000" stroke-width="1"></polygon></g><g id="i1_m5"><polygon points="100,75 100,100 75,100" fill="#000000" stroke="#000000" stroke-width="1"></polygon></g><g id="i1_m6"><polygon points="25,100 0,100 0,75" fill="#000000" stroke="#000000" stroke-width="1"></polygon></g><g id="i1_m7"><polygon points="0,0 25,0 0,25" fill="#000000" stroke="#000000" stroke-width="1"></polygon></g><g id="i1_m8"><polygon points="75,0 100,0 100,25" fill="#000000" stroke="#000000" stroke-width="1"></polygon></g></defs><use transform="translate(0,0) scale(0.3)" href="#border"></use><use transform="translate(0,0) scale(0.3)" href="#i1_m0"></use><use transform="translate(35,0) scale(0.3)" href="#border"></use><use transform="translate(35,0) scale(0.3)" href="#i1_m1"></use><use transform="translate(70,0) scale(0.3)" href="#border"></use><use transform="translate(70,0) scale(0.3)" href="#i1_m2"></use></svg>