<?xml version="1.0" standalone="no"?>
<svg xmlns="http://www.w3.org/2000/svg" viewBox="0 0 101 34" id="mini0"><defs><path id="border" d="m 0 0 h 100 v 100 h -100 z " fill="#fff" stroke="#000" stroke-width="2"></path><g id="i0_m0"><polygon points="12.5,50 50,12.5" stroke="#000000" stroke-width="1"></polygon><polygon points="12.5,50 50,87.5" stroke="#000000" stroke-width="1"></polygon><polygon points="50,87.5 87.5,50" stroke="#000000" stroke-width="1"></polygon><polygon points="50,12.5 87.5,50" stroke="#000000" stroke-width="1"></polygon></g><g id="i0_m1"><polygon points="12.5,50 50,87.5" stroke="#000000" stroke-width="1"></polygon><polygon points="50,12.5 87.5,50" stroke="#000000" stroke-width="1"></polygon></g><g id="i0_m2"><polygon points="12.5,50 50,12.5" stroke="#000000" stroke-width="1"></polygon><polygon points="50,87.5 87.5,50" stroke="#000000" stroke-width="1"></polygon></g><g id="i0_m3"><polygon points="12.5,50 50,12.5" stroke="#000000" stroke-width="1"></polygon><polygon points="12.5,50 50,87.5" stroke="#000000" stroke-width="1"></polygon></g><g id="i0_m4"><polygon points="12.5,50 50,87.5" stroke="#000000" stroke-width="1"></polygon></g><g id="i0_m5"><polygon points="12.5,50 50,12.5" stroke="#000000" stroke-width="1"></polygon></g><g id="i0_m6"><polygon points="12.5,50 50,12.5" stroke="#000000" stroke-width="1"></polygon><polygon points="50,12.5 87.5,50" stroke="#000000" stroke-width="1"></polygon></g><g id="i0_m7"><polygon points="50,12.5 87.5,50" stroke="#000000" stroke-width="1"></polygon></g><g id="i0_m8"><polygon points="12.5,50 50,12.5" stroke="#000000" stroke-width="1"></polygon></g></defs><use transform="translate(0,0) scale(0.3)" href="#border"></use><use transform="translate(0,0) scale(0.3)" href="#i0_m0"></use><use transform="translate(35,0) scale(0.3)" href="#border"></use><use transform="translate(35,0) scale(0.3)" href="#i0_m1"></use><use transform="translate(70,0) scale(0.3)" href="#border"></use><use transform="translate(70,0) scale(0.3)" href="#i0_m2"></use></svg>