<svg width="104" height="66" viewBox="0 0 104 66" fill="none" xmlns="http://www.w3.org/2000/svg">
<path d="M2 64.1951H14.5M102 64.1951H89.5M52 64.1951V2M52 64.1951H45.75M52 64.1951H58.25M77 64.1951V48.8761M77 64.1951H70.75M77 64.1951H83.25M64.5 64.1951V21.3019M64.5 64.1951H58.25M64.5 64.1951H70.75M27 64.1951V48.8761M27 64.1951H33.25M27 64.1951H20.75M39.5 64.1951V21.3019M39.5 64.1951H45.75M39.5 64.1951H33.25M89.5 64.1951V59.9058M89.5 64.1951H83.25M14.5 64.1951V59.9058M14.5 64.1951H20.75M45.75 64.1951V7.48781M58.25 64.1951V7.48781M70.75 64.1951V35.8415M33.25 64.1951V35.8415M83.25 64.1951V55.3537M20.75 64.1951V55.3537" stroke="url(#paint0_linear)" stroke-width="3" stroke-linecap="round" stroke-linejoin="round"/>
<defs>
<linearGradient id="paint0_linear" x1="2" y1="64.5015" x2="101.701" y2="64.5015" gradientUnits="userSpaceOnUse">
<stop stop-color="#FF0000"/>
<stop offset="1" stop-color="#00FF85"/>
</linearGradient>
</defs>
</svg>
