<?xml version="1.0" standalone="no"?>
<svg xmlns="http://www.w3.org/2000/svg" viewBox="0 0 101 101" id="mini2"><defs><path id="border" d="m 0 0 h 100 v 100 h -100 z " fill="#fff" stroke="#000" stroke-width="2"></path><g id="i2_m0"><polygon points="0,0 25,0 0,25" fill="#000000" stroke="#000000" stroke-width="1"></polygon><polygon points="25,100 0,100 0,75" fill="#000000" stroke="#000000" stroke-width="1"></polygon><polygon points="100,75 100,100 75,100" fill="#000000" stroke="#000000" stroke-width="1"></polygon><polygon points="75,0 100,0 100,25" fill="#000000" stroke="#000000" stroke-width="1"></polygon></g><g id="i2_m1"><rect width="20" height="20" x="40" y="40" fill="none" stroke="#000000" stroke-width="1"></rect></g><g id="i2_m2"><circle r="10" cx="50" cy="50"></circle></g><g id="i2_m3"><circle r="10" cx="50" cy="50"></circle></g><g id="i2_m4"><polygon points="0,0 25,0 0,25" fill="#000000" stroke="#000000" stroke-width="1"></polygon><polygon points="25,100 0,100 0,75" fill="#000000" stroke="#000000" stroke-width="1"></polygon><polygon points="100,75 100,100 75,100" fill="#000000" stroke="#000000" stroke-width="1"></polygon><polygon points="75,0 100,0 100,25" fill="#000000" stroke="#000000" stroke-width="1"></polygon></g><g id="i2_m5"><rect width="20" height="20" x="40" y="40" fill="none" stroke="#000000" stroke-width="1"></rect></g><g id="i2_m6"><rect width="20" height="20" x="40" y="40"></rect></g><g id="i2_m7"><circle r="10" cx="50" cy="50"></circle></g><g id="i2_m8"><polygon points="0,0 25,0 0,25" fill="#000000" stroke="#000000" stroke-width="1"></polygon><polygon points="25,100 0,100 0,75" fill="#000000" stroke="#000000" stroke-width="1"></polygon><polygon points="100,75 100,100 75,100" fill="#000000" stroke="#000000" stroke-width="1"></polygon><polygon points="75,0 100,0 100,25" fill="#000000" stroke="#000000" stroke-width="1"></polygon></g></defs><use transform="translate(0,0) scale(0.3)" href="#border"></use><use transform="translate(0,0) scale(0.3)" href="#i2_m0"></use><use transform="translate(35,0) scale(0.3)" href="#border"></use><use transform="translate(35,0) scale(0.3)" href="#i2_m1"></use><use transform="translate(70,0) scale(0.3)" href="#border"></use><use transform="translate(70,0) scale(0.3)" href="#i2_m2"></use><use transform="translate(0,35) scale(0.3)" href="#border"></use><use transform="translate(0,35) scale(0.3)" href="#i2_m3"></use><use transform="translate(35,35) scale(0.3)" href="#border"></use><use transform="translate(35,35) scale(0.3)" href="#i2_m4"></use><use transform="translate(70,35) scale(0.3)" href="#border"></use><use transform="translate(70,35) scale(0.3)" href="#i2_m5"></use><use transform="translate(0,70) scale(0.3)" href="#border"></use><use transform="translate(0,70) scale(0.3)" href="#i2_m6"></use><use transform="translate(35,70) scale(0.3)" href="#border"></use><use transform="translate(35,70) scale(0.3)" href="#i2_m7"></use><use transform="translate(70,70) scale(0.3)" href="#border"></use><use transform="translate(70,70) scale(0.3)" href="#i2_m8"></use></svg>